<svg xmlns="http://www.w3.org/2000/svg" width="719.265" height="702.382" viewBox="0 0 719.265 702.382">
  <g id="Grupo_32967" data-name="Grupo 32967" transform="translate(-586.864 -178.422)">
    <path id="Trazado_2333" data-name="Trazado 2333" d="M460.427,699.908,230.99,757.231V533.765l198.978-49.549c38.32-9.721,76.15,18.946,76.15,58.3V642.1A60.91,60.91,0,0,1,460.427,699.908Z" transform="translate(800.012 -149.885)" fill="#f7f7f7"/>
    <path id="Trazado_2334" data-name="Trazado 2334" d="M355.7,810.005,221.088,846.439c-38.321,9.71-76.154-18.952-76.154-58.3V688.558a59.909,59.909,0,0,1,45.2-57.814L400.9,574.4V751.71C401.395,779.4,382.727,803.2,355.7,810.005Z" transform="translate(629.611 32.462)" fill="#f7f7f7"/>
    <path id="Trazado_2335" data-name="Trazado 2335" d="M526.093,636.575,158.108,731.79c-38.81,10.2-76.15-18.46-76.15-57.812V574.391c0-27.207,18.669-51.007,45.691-57.811l322.785-84.042c38.321-9.714,76.151,18.947,76.151,58.294Z" transform="translate(504.906 -252.211)" fill="#fafafa"/>
  </g>
</svg>
